{"title":"Naruto Shippuuden 275 mkv 60 mb Bzingaz.mp4","uid":7537485,"size":44258974,"categoryP":"video","categoryS":"tv_shows","magnet":"?xt=urn:btih:abf5413a5d49716d3eee8e53031da33de324b9ae&amp;dn=Naruto+Shippuuden+275+mkv+60+mb+Bzingaz.mp4&amp;tr=udp%3A%2F%2Ftracker.openbittorrent.com%3A80&amp;tr=udp%3A%2F%2Fopen.demonii.com%3A1337&amp;tr=udp%3A%2F%2Ftracker.coppersurfer.tk%3A6969&amp;tr=udp%3A%2F%2Fexodus.desync.com%3A6969","seeders":0,"leechers":0,"uploader":"bzingaz","files":1,"time":1345131127,"description":"Naruto_Shippuuden_275 Eng Subbed BZINGAZ in mkv format 60 mb size. \n\nDownload**Enjoy**Seed\n\nNaruto Shippuuden 275 mkv 60 mb Bzingaz.mp4\n\nFormat                           : MPEG-4\nFormat profile                   : Base Media\nCodec ID                         : isom\nFile size                        : 42.2 MiB\nDuration                         : 23mn 9s\nOverall bit rate                 : 255 Kbps\n\n\nVideo\nID                               : 1\nFormat                           : AVC\nFormat/Info                      : Advanced Video Codec\nFormat profile                   : &lt;a class=&quot;__cf_email__&quot; href=&quot;/cdn-cgi/l/email-protection&quot; data-cfemail=&quot;6028090708202c534e50&quot;&gt;[email&amp;#160;protected]&lt;/a&gt;&lt;script data-cfhash='f9e31' type=&quot;text/javascript&quot;&gt;\n/* &lt;![CDATA[ */!function(){try{var t=&quot;currentScript&quot;in document?document.currentScript:function(){for(var t=document.getElementsByTagName(&quot;script&quot;),e=t.length;e--;)if(t[e].getAttribute(&quot;data-cfhash&quot;))return t[e]}();if(t&amp;&amp;t.previousSibling){var e,r,n,i,c=t.previousSibling,a=c.getAttribute(&quot;data-cfemail&quot;);if(a){for(e=&quot;&quot;,r=parseInt(a.substr(0,2),16),n=2;a.length-n;n+=2)i=parseInt(a.substr(n,2),16)^r,e+=String.fromCharCode(i);e=document.createTextNode(e),c.parentNode.replaceChild(e,c)}t.parentNode.removeChild(t);}}catch(u){}}()/* ]]&gt; */&lt;/script&gt;\nFormat settings, CABAC           : Yes\nFormat settings, ReFrames        : 6 frames\nCodec ID                         : avc1\nCodec ID/Info                    : Advanced Video Coding\nDuration                         : 23mn 9s\nBit rate mode                    : Variable\nBit rate                         : 158 Kbps\nMaximum bit rate                 : 1 115 Kbps\nWidth                            : 640 pixels\nHeight                           : 360 pixels\nDisplay aspect ratio             : 16:9\nOriginal display aspect ratio    : 16:9\nFrame rate mode                  : Constant\nFrame rate                       : 23.976 fps\nColor space                      : YUV\nChroma subsampling               : 4:2:0\nBit depth                        : 8 bits\nScan type                        : Progressive\nBits/(Pixel*Frame)               : 0.029\nStream size                      : 26.1 MiB (62%)\n\nAudio\nID                               : 2\nFormat                           : AAC\nFormat/Info                      : Advanced Audio Codec\nFormat profile                   : LC\nCodec ID                         : 40\nDuration                         : 23mn 9s\nBit rate mode                    : Variable\nBit rate                         : 93.3 Kbps\nMaximum bit rate                 : 151 Kbps\nChannel(s)                       : 2 channels\nChannel positions                : Front: L R\nSampling rate                    : 44.1 KHz\nCompression mode                 : Lossy\nStream size                      : 15.5 MiB (37%)\nEncoded date                     : UTC 2012-08-15 10:59:19\nTagged date                      : UTC 2012-08-15 10:59:19\n","torrent":{"xt":"urn:btih:abf5413a5d49716d3eee8e53031da33de324b9ae","amp;dn":"Naruto+Shippuuden+275+mkv+60+mb+Bzingaz.mp4","amp;tr":["udp%3A%2F%2Ftracker.openbittorrent.com%3A80","udp%3A%2F%2Fopen.demonii.com%3A1337","udp%3A%2F%2Ftracker.coppersurfer.tk%3A6969","udp%3A%2F%2Fexodus.desync.com%3A6969"],"infoHash":"abf5413a5d49716d3eee8e53031da33de324b9ae","infoHashBuffer":{"type":"Buffer","data":[171,245,65,58,93,73,113,109,62,238,142,83,3,29,163,61,227,36,185,174]},"announce":[],"urlList":[]}}